<svg xmlns="http://www.w3.org/2000/svg" viewBox="0 0 7.56 6.55"><defs><style>.cls-1,.cls-2{fill:none;stroke:#fff;stroke-linecap:round;stroke-width:0.3px;}.cls-1{stroke-linejoin:round;}</style></defs><title>Asset 1</title><g id="Layer_2" data-name="Layer 2"><g id="Layer_1-2" data-name="Layer 1"><path class="cls-1" d="M7.41.84,6.65,2.23,5.88.84"/><path class="cls-1" d="M5.12.84H4.35V2.23h.77"/><path class="cls-1" d="M4.35,1.54h.58"/><path class="cls-2" d="M1.3,2.23V5.7a.73.73,0,0,0,.76.7H5.5a.73.73,0,0,0,.76-.7V4"/><path class="cls-2" d="M2.44,1.05v.49a.73.73,0,0,1-.76.69H.91a.73.73,0,0,1-.76-.69V1.05A.22.22,0,0,1,.38.84H2.21A.22.22,0,0,1,2.44,1.05Z"/><path class="cls-2" d="M.53.84V.15"/><path class="cls-2" d="M2.06.84V.15"/></g></g></svg>