<?xml version="1.0" encoding="UTF-8"?>
<!DOCTYPE svg PUBLIC "-//W3C//DTD SVG 1.1//EN" "http://www.w3.org/Graphics/SVG/1.1/DTD/svg11.dtd">
<svg xmlns="http://www.w3.org/2000/svg" version="1.1" width="866px" height="844px" style="shape-rendering:geometricPrecision; text-rendering:geometricPrecision; image-rendering:optimizeQuality; fill-rule:evenodd; clip-rule:evenodd" xmlns:xlink="http://www.w3.org/1999/xlink">
<g><path style="opacity:1" fill="#fefefe" d="M -0.5,-0.5 C 288.167,-0.5 576.833,-0.5 865.5,-0.5C 865.5,280.833 865.5,562.167 865.5,843.5C 576.833,843.5 288.167,843.5 -0.5,843.5C -0.5,823.167 -0.5,802.833 -0.5,782.5C 63.905,743.435 128.572,704.769 193.5,666.5C 202.176,673.836 210.842,681.169 219.5,688.5C 214.167,700.833 208.833,713.167 203.5,725.5C 225.236,739.122 247.403,752.122 270,764.5C 277.679,756.813 284.679,748.48 291,739.5C 292.719,737.443 294.719,735.776 297,734.5C 322.296,745.026 348.462,752.526 375.5,757C 377.614,769.734 379.28,782.567 380.5,795.5C 406.167,795.5 431.833,795.5 457.5,795.5C 458.809,782.855 460.809,770.355 463.5,758C 491.577,754.689 518.743,747.856 545,737.5C 552.999,747.337 560.833,757.337 568.5,767.5C 590.244,754.569 612.077,741.902 634,729.5C 630.597,717.834 626.431,706.334 621.5,695C 643.797,677.704 663.797,658.037 681.5,636C 691.908,640.034 702.241,644.367 712.5,649C 713.5,649.667 714.5,649.667 715.5,649C 728.639,627.217 741.639,605.384 754.5,583.5C 746.833,577.333 739.167,571.167 731.5,565C 729.323,563.503 727.99,561.503 727.5,559C 738.047,532.645 745.714,505.478 750.5,477.5C 760.789,475.922 771.123,474.589 781.5,473.5C 782.833,473.5 784.167,473.5 785.5,473.5C 785.5,453.833 785.5,434.167 785.5,414.5C 785.81,408.242 785.476,402.076 784.5,396C 773.221,394.537 762.054,392.703 751,390.5C 747.277,361.827 739.777,334.16 728.5,307.5C 738.073,300.224 747.407,292.724 756.5,285C 744.372,262.566 731.372,240.732 717.5,219.5C 714.279,220.907 710.945,221.907 707.5,222.5C 751.125,196.882 795.125,171.715 839.5,147C 821.175,145.874 802.841,145.04 784.5,144.5C 784.167,144 783.833,143.5 783.5,143C 789.223,127.321 795.223,111.821 801.5,96.5C 801.167,96.1667 800.833,95.8333 800.5,95.5C 749.805,127.511 699.139,159.511 648.5,191.5C 642.323,185.159 635.656,179.326 628.5,174C 626.876,172.883 625.876,171.383 625.5,169.5C 629.049,160.68 632.882,152.013 637,143.5C 637.837,141.179 638.17,138.845 638,136.5C 616.418,123.959 594.918,111.293 573.5,98.5C 566.462,106.041 559.962,114.041 554,122.5C 552.561,124.448 550.728,125.781 548.5,126.5C 522.317,116.44 495.317,109.44 467.5,105.5C 465.838,92.8684 464.504,80.2017 463.5,67.5C 437.5,67.5 411.5,67.5 385.5,67.5C 383.815,80.4169 381.815,93.2502 379.5,106C 352.537,110.093 326.537,117.26 301.5,127.5C 299.272,126.781 297.439,125.448 296,123.5C 289.652,114.141 282.819,105.141 275.5,96.5C 253.963,109.2 232.296,121.7 210.5,134C 209.446,135.388 209.28,136.888 210,138.5C 213.997,148.489 217.997,158.489 222,168.5C 222.667,170.167 222.667,171.833 222,173.5C 201.12,190.714 181.954,209.547 164.5,230C 162.529,230.014 160.529,229.681 158.5,229C 148.15,224.322 137.65,219.822 127,215.5C 125.739,215.759 124.739,216.426 124,217.5C 112.286,238.431 100.453,259.264 88.5,280C 89.1007,281.605 90.1007,282.938 91.5,284C 101.297,291.299 110.631,299.132 119.5,307.5C 109.065,332.573 102.065,358.573 98.5,385.5C 84.8623,387.346 71.1957,389.013 57.5,390.5C 57.5,416.5 57.5,442.5 57.5,468.5C 71.1235,469.91 84.6235,471.91 98,474.5C 101.238,500.872 107.738,526.372 117.5,551C 117.561,552.711 116.894,554.044 115.5,555C 105.046,562.292 95.0457,570.125 85.5,578.5C 97.5883,601.021 110.422,623.021 124,644.5C 136.353,639.821 148.686,635.154 161,630.5C 168.013,637.684 174.513,645.351 180.5,653.5C 120.185,696.142 59.8514,738.808 -0.5,781.5C -0.5,520.833 -0.5,260.167 -0.5,-0.5 Z"/></g>
<g><path style="opacity:1" fill="#232022" d="M 648.5,191.5 C 646.429,192.787 646.096,194.453 647.5,196.5C 643.639,199.528 639.639,202.361 635.5,205C 496.862,292.134 358.862,379.967 221.5,468.5C 291.167,469.167 360.833,469.833 430.5,470.5C 377.376,511.118 324.376,551.951 271.5,593C 275.72,597.723 280.387,601.89 285.5,605.5C 379.032,544.137 472.698,482.97 566.5,422C 559.5,421.333 552.5,421.333 545.5,422C 490.828,425.2 436.161,428.534 381.5,432C 362.512,433.333 343.512,434 324.5,434C 444.919,365.707 565.419,297.54 686,229.5C 686.833,230.5 687.667,231.5 688.5,232.5C 694.894,229.063 701.227,225.73 707.5,222.5C 710.945,221.907 714.279,220.907 717.5,219.5C 731.372,240.732 744.372,262.566 756.5,285C 747.407,292.724 738.073,300.224 728.5,307.5C 739.777,334.16 747.277,361.827 751,390.5C 762.054,392.703 773.221,394.537 784.5,396C 785.476,402.076 785.81,408.242 785.5,414.5C 784.503,433.659 784.17,452.993 784.5,472.5C 783.209,472.263 782.209,472.596 781.5,473.5C 771.123,474.589 760.789,475.922 750.5,477.5C 745.714,505.478 738.047,532.645 727.5,559C 727.99,561.503 729.323,563.503 731.5,565C 739.167,571.167 746.833,577.333 754.5,583.5C 741.639,605.384 728.639,627.217 715.5,649C 714.5,649.667 713.5,649.667 712.5,649C 702.241,644.367 691.908,640.034 681.5,636C 663.797,658.037 643.797,677.704 621.5,695C 626.431,706.334 630.597,717.834 634,729.5C 612.077,741.902 590.244,754.569 568.5,767.5C 560.833,757.337 552.999,747.337 545,737.5C 518.743,747.856 491.577,754.689 463.5,758C 460.809,770.355 458.809,782.855 457.5,795.5C 431.833,795.5 406.167,795.5 380.5,795.5C 379.28,782.567 377.614,769.734 375.5,757C 348.462,752.526 322.296,745.026 297,734.5C 294.719,735.776 292.719,737.443 291,739.5C 284.679,748.48 277.679,756.813 270,764.5C 247.403,752.122 225.236,739.122 203.5,725.5C 208.833,713.167 214.167,700.833 219.5,688.5C 210.842,681.169 202.176,673.836 193.5,666.5C 189.5,661.833 185.167,657.5 180.5,653.5C 174.513,645.351 168.013,637.684 161,630.5C 148.686,635.154 136.353,639.821 124,644.5C 110.422,623.021 97.5883,601.021 85.5,578.5C 95.0457,570.125 105.046,562.292 115.5,555C 116.894,554.044 117.561,552.711 117.5,551C 107.738,526.372 101.238,500.872 98,474.5C 84.6235,471.91 71.1235,469.91 57.5,468.5C 57.5,442.5 57.5,416.5 57.5,390.5C 71.1957,389.013 84.8623,387.346 98.5,385.5C 102.065,358.573 109.065,332.573 119.5,307.5C 110.631,299.132 101.297,291.299 91.5,284C 90.1007,282.938 89.1007,281.605 88.5,280C 100.453,259.264 112.286,238.431 124,217.5C 124.739,216.426 125.739,215.759 127,215.5C 137.65,219.822 148.15,224.322 158.5,229C 160.529,229.681 162.529,230.014 164.5,230C 181.954,209.547 201.12,190.714 222,173.5C 222.667,171.833 222.667,170.167 222,168.5C 217.997,158.489 213.997,148.489 210,138.5C 209.28,136.888 209.446,135.388 210.5,134C 232.296,121.7 253.963,109.2 275.5,96.5C 282.819,105.141 289.652,114.141 296,123.5C 297.439,125.448 299.272,126.781 301.5,127.5C 326.537,117.26 352.537,110.093 379.5,106C 381.815,93.2502 383.815,80.4169 385.5,67.5C 411.5,67.5 437.5,67.5 463.5,67.5C 464.504,80.2017 465.838,92.8684 467.5,105.5C 495.317,109.44 522.317,116.44 548.5,126.5C 550.728,125.781 552.561,124.448 554,122.5C 559.962,114.041 566.462,106.041 573.5,98.5C 594.918,111.293 616.418,123.959 638,136.5C 638.17,138.845 637.837,141.179 637,143.5C 632.882,152.013 629.049,160.68 625.5,169.5C 625.876,171.383 626.876,172.883 628.5,174C 635.656,179.326 642.323,185.159 648.5,191.5 Z"/></g>
<g><path style="opacity:1" fill="#faf04f" d="M 391.5,74.5 C 413.177,74.167 434.844,74.5003 456.5,75.5C 458.36,87.4326 459.693,99.4326 460.5,111.5C 491.905,114.893 522.071,122.893 551,135.5C 552.944,134.561 554.611,133.227 556,131.5C 561.593,123.984 567.426,116.651 573.5,109.5C 574.723,108.386 576.056,108.219 577.5,109C 594.584,119.293 611.751,129.459 629,139.5C 626.014,150.83 621.847,161.83 616.5,172.5C 624.29,179.119 631.957,185.952 639.5,193C 612.667,210.5 585.833,228 559,245.5C 503.683,207.133 442.849,194.3 376.5,207C 303.109,225.719 249.276,268.886 215,336.5C 192.198,388.289 188.198,441.289 203,495.5C 229.401,576.234 283.234,629.067 364.5,654C 437.866,671.672 504.866,658.338 565.5,614C 629.561,560.677 658.727,492.177 653,408.5C 647.718,362.622 630.884,321.622 602.5,285.5C 631.062,268.05 660.395,251.883 690.5,237C 697.833,234.333 705.167,231.667 712.5,229C 713.944,228.219 715.277,228.386 716.5,229.5C 726.833,247.5 737.167,265.5 747.5,283.5C 738.078,290.202 729.078,297.368 720.5,305C 732.688,334.733 740.688,365.566 744.5,397.5C 755.902,398.734 767.235,400.4 778.5,402.5C 778.5,423.833 778.5,445.167 778.5,466.5C 766.924,468.572 755.257,469.905 743.5,470.5C 739.529,502.185 731.196,532.685 718.5,562C 726.98,569.977 735.646,577.81 744.5,585.5C 734.167,603.5 723.833,621.5 713.5,639.5C 712.635,640.583 711.635,640.749 710.5,640C 700.39,635.099 690.056,631.099 679.5,628C 660.259,651.909 638.426,673.075 614,691.5C 617.202,702.769 621.035,713.936 625.5,725C 607.983,736.685 589.817,747.518 571,757.5C 569.739,757.241 568.739,756.574 568,755.5C 561.933,746.004 554.933,737.338 547,729.5C 517.95,741.442 487.784,748.776 456.5,751.5C 454.725,763.818 453.058,776.151 451.5,788.5C 429.833,788.5 408.167,788.5 386.5,788.5C 384.73,775.881 383.397,763.215 382.5,750.5C 351.891,746.63 322.557,738.296 294.5,725.5C 285.46,735.205 276.793,745.205 268.5,755.5C 249.833,744.5 231.167,733.5 212.5,722.5C 217.647,710.382 222.98,698.382 228.5,686.5C 204.313,668.48 183.313,647.314 165.5,623C 163.833,622.333 162.167,622.333 160.5,623C 150.23,627.151 139.897,631.151 129.5,635C 127.888,635.72 126.388,635.554 125,634.5C 115.087,616.338 104.92,598.338 94.5,580.5C 105.457,572.212 116.123,563.545 126.5,554.5C 115.397,526.755 108.064,498.088 104.5,468.5C 91.2694,466.368 78.1027,464.035 65,461.5C 64.5,439.836 64.3334,418.169 64.5,396.5C 77.8434,395.165 91.1767,393.832 104.5,392.5C 108.258,362.468 115.925,333.468 127.5,305.5C 119.954,297.457 111.621,290.29 102.5,284C 100.443,282.281 98.7763,280.281 97.5,278C 107.966,260.232 118.3,242.399 128.5,224.5C 129.723,223.386 131.056,223.219 132.5,224C 143.167,228.667 153.833,233.333 164.5,238C 165.5,238.667 166.5,238.667 167.5,238C 186,214.167 207.167,193 231,174.5C 227.244,163.579 223.244,152.579 219,141.5C 218.333,139.833 218.333,138.167 219,136.5C 235.594,126.235 252.427,116.402 269.5,107C 271.165,106.212 272.831,105.878 274.5,106C 282.222,115.956 290.055,125.789 298,135.5C 326.014,123.765 355.181,115.932 385.5,112C 387.635,99.5566 389.635,87.0566 391.5,74.5 Z"/></g>
<g><path style="opacity:1" fill="#da3832" d="M 707.5,222.5 C 701.227,225.73 694.894,229.063 688.5,232.5C 687.667,231.5 686.833,230.5 686,229.5C 565.419,297.54 444.919,365.707 324.5,434C 343.512,434 362.512,433.333 381.5,432C 436.161,428.534 490.828,425.2 545.5,422C 552.5,421.333 559.5,421.333 566.5,422C 472.698,482.97 379.032,544.137 285.5,605.5C 280.387,601.89 275.72,597.723 271.5,593C 324.376,551.951 377.376,511.118 430.5,470.5C 431.043,470.44 431.376,470.107 431.5,469.5C 361.503,468.5 291.503,468.167 221.5,468.5C 358.862,379.967 496.862,292.134 635.5,205C 639.639,202.361 643.639,199.528 647.5,196.5C 646.096,194.453 646.429,192.787 648.5,191.5C 699.139,159.511 749.805,127.511 800.5,95.5C 800.833,95.8333 801.167,96.1667 801.5,96.5C 795.223,111.821 789.223,127.321 783.5,143C 783.833,143.5 784.167,144 784.5,144.5C 802.841,145.04 821.175,145.874 839.5,147C 795.125,171.715 751.125,196.882 707.5,222.5 Z"/></g>
<g><path style="opacity:1" fill="#1d1a21" d="M 377.5,122.5 C 380.127,122.293 381.793,123.46 382.5,126C 380.343,131.487 376.343,134.82 370.5,136C 364.477,137.152 358.477,137.819 352.5,138C 355.659,135.768 358.326,133.101 360.5,130C 360.37,128.941 359.87,128.108 359,127.5C 357.972,129.361 356.472,130.695 354.5,131.5C 353.627,126.211 355.96,124.044 361.5,125C 364.124,127.153 365.124,129.987 364.5,133.5C 368.095,133.024 371.428,131.858 374.5,130C 376.377,127.874 377.377,125.374 377.5,122.5 Z"/></g>
<g><path style="opacity:1" fill="#211e22" d="M 373.5,141.5 C 375.167,141.5 376.833,141.5 378.5,141.5C 377.519,146.129 377.352,150.796 378,155.5C 380.91,165.638 383.743,175.804 386.5,186C 385.926,197.914 380.092,201.747 369,197.5C 366.888,198.608 365.054,200.108 363.5,202C 358.589,203.492 353.589,203.826 348.5,203C 347.069,202.535 345.903,201.701 345,200.5C 343.541,197.331 342.708,193.998 342.5,190.5C 343.623,185.795 344.956,181.129 346.5,176.5C 339.458,175.97 336.291,172.303 337,165.5C 341.716,160.605 346.716,160.272 352,164.5C 353.006,166.534 353.506,168.7 353.5,171C 352.617,176.652 351.117,182.152 349,187.5C 346.646,196.987 350.146,200.487 359.5,198C 362.434,196.132 364.101,193.466 364.5,190C 362.233,179.165 359.9,168.332 357.5,157.5C 359.46,156.862 361.293,156.862 363,157.5C 365.515,168.937 368.349,180.27 371.5,191.5C 377.735,195.113 381.068,193.279 381.5,186C 378.15,176.281 374.983,166.448 372,156.5C 370.977,151.202 371.477,146.202 373.5,141.5 Z"/></g>
<g><path style="opacity:1" fill="#211e22" d="M 408.5,150.5 C 416.883,149.61 423.383,152.61 428,159.5C 428.821,171.409 428.654,183.243 427.5,195C 425.421,195.808 423.421,195.641 421.5,194.5C 423.041,188.46 423.707,182.293 423.5,176C 423.333,171.5 423.167,167 423,162.5C 419.086,156.617 413.919,155.117 407.5,158C 413.843,160.617 415.176,164.95 411.5,171C 401.532,173.703 397.032,169.87 398,159.5C 400.468,155.199 403.968,152.199 408.5,150.5 Z"/></g>
<g><path style="opacity:1" fill="#211e21" d="M 452.5,152.5 C 482.945,151.459 492.445,165.126 481,193.5C 476.688,200.5 471.688,201.166 466,195.5C 464.869,191.106 463.535,186.773 462,182.5C 456.967,176.506 451.8,176.173 446.5,181.5C 449.767,181.11 453.101,181.61 456.5,183C 460.635,192.879 457.302,196.879 446.5,195C 438.509,189.399 437.509,182.732 443.5,175C 450.664,171.499 457.664,171.832 464.5,176C 467.24,181.781 469.907,187.614 472.5,193.5C 474.959,192.209 476.459,190.209 477,187.5C 484.15,165.65 476.317,156.15 453.5,159C 452.289,160.113 452.289,161.28 453.5,162.5C 452.368,166.823 450.201,167.49 447,164.5C 445.627,162.305 445.294,159.971 446,157.5C 447.965,155.45 450.132,153.783 452.5,152.5 Z"/></g>
<g><path style="opacity:1" fill="#e5e04a" d="M 342.5,165.5 C 346.677,164.842 348.177,166.508 347,170.5C 345.688,172.658 344.022,172.991 342,171.5C 341.322,169.402 341.489,167.402 342.5,165.5 Z"/></g>
<g><path style="opacity:1" fill="#dfdb49" d="M 403.5,162.5 C 405.199,162.34 406.866,162.506 408.5,163C 409.813,166.692 408.48,168.359 404.5,168C 402.17,166.512 401.836,164.679 403.5,162.5 Z"/></g>
<g><path style="opacity:1" fill="#211e21" d="M 507.5,164.5 C 520.755,164.263 527.589,170.596 528,183.5C 525.136,191.092 522.469,198.758 520,206.5C 519.152,208.874 517.819,210.874 516,212.5C 514.049,212.112 512.549,211.112 511.5,209.5C 516.239,200.123 519.905,190.29 522.5,180C 520.877,173.039 516.544,170.039 509.5,171C 513.941,174.312 514.608,178.312 511.5,183C 501.426,186.553 496.926,183.053 498,172.5C 500.362,168.755 503.528,166.089 507.5,164.5 Z"/></g>
<g><path style="opacity:1" fill="#ebe64c" d="M 503.5,174.5 C 508.159,174.015 509.492,175.848 507.5,180C 502.728,180.81 501.395,178.977 503.5,174.5 Z"/></g>
<g><path style="opacity:1" fill="#201d21" d="M 312.5,159.5 C 316.366,173.829 323.199,186.829 333,198.5C 335.579,211.091 330.413,217.091 317.5,216.5C 312.89,223.967 306.223,226.801 297.5,225C 294.527,223.235 292.36,220.735 291,217.5C 290.634,211.825 290.8,206.159 291.5,200.5C 284.758,202.243 280.758,199.743 279.5,193C 283.371,186.268 288.537,185.101 295,189.5C 297.762,196.458 298.262,203.625 296.5,211C 296.246,221.041 300.579,223.708 309.5,219C 312.265,216.005 313.098,212.505 312,208.5C 306.936,199.041 302.436,189.374 298.5,179.5C 300.201,179.034 301.701,179.034 303,179.5C 307.745,189.324 312.745,198.99 318,208.5C 320.801,211.796 323.801,212.129 327,209.5C 328.457,206.634 328.79,203.634 328,200.5C 320.724,190.953 314.724,180.62 310,169.5C 309.333,166.833 309.333,164.167 310,161.5C 310.995,160.934 311.828,160.267 312.5,159.5 Z"/></g>
<g><path style="opacity:1" fill="#221e22" d="M 547.5,183.5 C 560.831,182.244 570.331,187.577 576,199.5C 576.667,201.833 576.667,204.167 576,206.5C 574.442,211.052 572.442,215.385 570,219.5C 563.728,230.879 554.895,233.379 543.5,227C 537.43,224.719 533.263,220.552 531,214.5C 529.733,204.43 533.899,200.93 543.5,204C 547.992,209.693 546.992,214.36 540.5,218C 545.877,223.102 552.211,224.769 559.5,223C 565.881,216.744 569.381,209.244 570,200.5C 565.484,193.163 558.984,189.33 550.5,189C 548.401,191.57 546.068,191.904 543.5,190C 542.549,189.282 542.383,188.449 543,187.5C 544.397,185.93 545.897,184.596 547.5,183.5 Z"/></g>
<g><path style="opacity:1" fill="#e8e44b" d="M 450.5,185.5 C 454.068,185.759 455.401,187.759 454.5,191.5C 448.541,192.222 447.207,190.222 450.5,185.5 Z"/></g>
<g><path style="opacity:1" fill="#f0ec4e" d="M 286.5,190.5 C 289.243,190.077 290.576,191.244 290.5,194C 288.82,199.686 286.82,199.852 284.5,194.5C 284.752,192.927 285.418,191.594 286.5,190.5 Z"/></g>
<g><path style="opacity:1" fill="#e7e34b" d="M 537.5,206.5 C 541.485,206.629 542.818,208.463 541.5,212C 536.728,212.81 535.395,210.977 537.5,206.5 Z"/></g>
<g><path style="opacity:1" fill="#2f308c" d="M 410.5,209.5 C 449.893,207.671 487.226,215.171 522.5,232C 532.338,237.082 541.671,242.916 550.5,249.5C 515.533,271.654 480.533,293.821 445.5,316C 399.971,309.502 362.471,323.669 333,358.5C 323.135,371.906 315.635,386.573 310.5,402.5C 275.459,424.562 240.459,446.562 205.5,468.5C 193.64,393.992 213.974,329.658 266.5,275.5C 306.87,236.37 354.87,214.37 410.5,209.5 Z"/></g>
<g><path style="opacity:1" fill="#221e21" d="M 219.5,198.5 C 228.527,199.838 236.86,203.171 244.5,208.5C 246.131,205.404 248.131,202.57 250.5,200C 259.981,199.832 262.481,203.998 258,212.5C 257.333,214.5 257.333,216.5 258,218.5C 261.713,223.424 265.546,228.258 269.5,233C 272.546,231.354 275.88,230.688 279.5,231C 285.136,234.203 285.802,238.203 281.5,243C 278.634,244.457 275.634,244.79 272.5,244C 265.287,235.789 258.454,227.289 252,218.5C 251.673,214.301 252.506,210.301 254.5,206.5C 254.167,205.833 253.833,205.167 253.5,204.5C 251.461,206.742 249.795,209.242 248.5,212C 246.167,212.667 243.833,212.667 241.5,212C 234.764,207.369 227.431,204.202 219.5,202.5C 219.5,201.167 219.5,199.833 219.5,198.5 Z"/></g>
<g><path style="opacity:1" fill="#f0ea4d" d="M 276.5,233.5 C 281.341,235.544 281.675,238.211 277.5,241.5C 273.933,239.235 273.6,236.568 276.5,233.5 Z"/></g>
<g><path style="opacity:1" fill="#2f308c" d="M 594.5,289.5 C 621.76,321.381 638.26,358.381 644,400.5C 653.306,482.335 626.806,550.502 564.5,605C 502.493,651.869 434.16,665.202 359.5,645C 335.313,636.797 312.98,625.13 292.5,610C 325.719,587.939 359.052,566.106 392.5,544.5C 437.503,555.457 476.67,544.79 510,512.5C 526.635,494.283 536.969,472.95 541,448.5C 559.25,435.91 577.75,423.743 596.5,412C 583.333,412.055 570.166,412.555 557,413.5C 554.111,413.453 551.278,413.12 548.5,412.5C 546.132,414.223 543.466,414.89 540.5,414.5C 535.894,385.955 522.894,361.955 501.5,342.5C 532.423,324.543 563.423,306.877 594.5,289.5 Z"/></g>
<g><path style="opacity:1" fill="#fafafa" d="M 409.5,322.5 C 417.84,322.334 426.173,322.5 434.5,323C 397.5,346.833 360.5,370.667 323.5,394.5C 322.628,392.534 322.795,390.534 324,388.5C 341.081,351.572 369.581,329.572 409.5,322.5 Z"/></g>
<g><path style="opacity:1" fill="#fdfdfd" d="M 490.5,347.5 C 492.199,347.34 493.866,347.506 495.5,348C 516.343,365.854 528.676,388.354 532.5,415.5C 473.523,419.391 414.523,422.558 355.5,425C 400.563,399.14 445.563,373.306 490.5,347.5 Z"/></g>
<g><path style="opacity:1" fill="#211e21" d="M 151.5,435.5 C 151.44,434.957 151.107,434.624 150.5,434.5C 149.504,440.463 149.171,446.463 149.5,452.5C 147.5,452.5 145.5,452.5 143.5,452.5C 143.829,446.794 143.495,441.128 142.5,435.5C 138.5,439.167 134.5,442.833 130.5,446.5C 128.625,445.46 127.292,443.96 126.5,442C 129.785,437.712 133.452,433.712 137.5,430C 132.019,428.551 126.352,428.051 120.5,428.5C 120.5,426.5 120.5,424.5 120.5,422.5C 125.875,422.828 131.208,422.495 136.5,421.5C 133.894,417.391 130.727,413.724 127,410.5C 126.277,407.875 127.277,406.208 130,405.5C 134.303,408.967 138.47,412.634 142.5,416.5C 143.495,410.872 143.829,405.206 143.5,399.5C 145.833,399.5 148.167,399.5 150.5,399.5C 150.334,405.176 150.501,410.843 151,416.5C 155.26,412.951 159.427,409.284 163.5,405.5C 165.167,406.5 166.5,407.833 167.5,409.5C 163.833,413.5 160.167,417.5 156.5,421.5C 162.128,422.495 167.794,422.829 173.5,422.5C 173.5,424.5 173.5,426.5 173.5,428.5C 167.833,428.5 162.167,428.5 156.5,428.5C 156.351,429.552 156.517,430.552 157,431.5C 160.333,434.833 163.667,438.167 167,441.5C 166.833,444.333 165.333,445.833 162.5,446C 158.931,442.325 155.265,438.825 151.5,435.5 Z"/></g>
<g><path style="opacity:1" fill="#221f21" d="M 696.5,454.5 C 696.829,448.463 696.496,442.463 695.5,436.5C 694.893,436.624 694.56,436.957 694.5,437.5C 691.168,441.664 687.335,445.331 683,448.5C 681.5,447 680,445.5 678.5,444C 682.37,440.298 686.037,436.464 689.5,432.5C 690.043,432.44 690.376,432.107 690.5,431.5C 684.872,430.505 679.206,430.171 673.5,430.5C 673.5,428.5 673.5,426.5 673.5,424.5C 679.358,424.822 685.025,424.489 690.5,423.5C 686.704,419.202 682.704,415.036 678.5,411C 680.017,409.315 681.684,407.815 683.5,406.5C 687.818,410.318 691.985,414.318 696,418.5C 696.499,412.509 696.666,406.509 696.5,400.5C 698.833,400.5 701.167,400.5 703.5,400.5C 703.171,406.206 703.505,411.872 704.5,417.5C 708.5,413.833 712.5,410.167 716.5,406.5C 718.375,407.54 719.708,409.04 720.5,411C 717.215,415.288 713.548,419.288 709.5,423C 715.157,423.499 720.824,423.666 726.5,423.5C 726.5,426.167 726.5,428.833 726.5,431.5C 720.824,431.334 715.157,431.501 709.5,432C 713.548,435.712 717.215,439.712 720.5,444C 719.708,445.96 718.375,447.46 716.5,448.5C 712.5,444.833 708.5,441.167 704.5,437.5C 703.505,443.128 703.171,448.794 703.5,454.5C 701.167,454.5 698.833,454.5 696.5,454.5 Z"/></g>
<g><path style="opacity:1" fill="#696326" d="M 690.5,423.5 C 685.025,424.489 679.358,424.822 673.5,424.5C 673.5,426.5 673.5,428.5 673.5,430.5C 672.532,428.393 672.198,426.059 672.5,423.5C 678.5,423.5 684.5,423.5 690.5,423.5 Z"/></g>
<g><path style="opacity:1" fill="#9a9431" d="M 673.5,430.5 C 679.206,430.171 684.872,430.505 690.5,431.5C 690.376,432.107 690.043,432.44 689.5,432.5C 684.167,431.833 678.833,431.167 673.5,430.5 Z"/></g>
<g><path style="opacity:1" fill="#4b4646" d="M 785.5,414.5 C 785.5,434.167 785.5,453.833 785.5,473.5C 784.167,473.5 782.833,473.5 781.5,473.5C 782.209,472.596 783.209,472.263 784.5,472.5C 784.17,452.993 784.503,433.659 785.5,414.5 Z"/></g>
<g><path style="opacity:1" fill="#a9a136" d="M 694.5,437.5 C 694.56,436.957 694.893,436.624 695.5,436.5C 696.496,442.463 696.829,448.463 696.5,454.5C 695.833,448.833 695.167,443.167 694.5,437.5 Z"/></g>
<g><path style="opacity:1" fill="#676326" d="M 151.5,435.5 C 150.833,441.167 150.167,446.833 149.5,452.5C 149.171,446.463 149.504,440.463 150.5,434.5C 151.107,434.624 151.44,434.957 151.5,435.5 Z"/></g>
<g><path style="opacity:1" fill="#fbfbfb" d="M 530.5,454.5 C 525.527,483.535 510.527,506.369 485.5,523C 459.609,539.627 431.609,544.794 401.5,538.5C 444.394,510.227 487.394,482.227 530.5,454.5 Z"/></g>
<g><path style="opacity:1" fill="#692525" d="M 221.5,468.5 C 291.503,468.167 361.503,468.5 431.5,469.5C 431.376,470.107 431.043,470.44 430.5,470.5C 360.833,469.833 291.167,469.167 221.5,468.5 Z"/></g>
<g><path style="opacity:1" fill="#686566" d="M 402.5,476.5 C 376.661,476.169 350.995,476.502 325.5,477.5C 324.957,477.44 324.624,477.107 324.5,476.5C 350.664,475.171 376.664,475.171 402.5,476.5 Z"/></g>
<g><path style="opacity:1" fill="#2f308d" d="M 206.5,476.5 C 243.168,476.333 279.835,476.5 316.5,477C 324.197,494.559 335.197,509.726 349.5,522.5C 321.958,544.191 294.125,565.524 266,586.5C 243.887,564.996 227.221,539.663 216,510.5C 211.581,499.489 208.415,488.155 206.5,476.5 Z"/></g>
<g><path style="opacity:1" fill="#fcfcfc" d="M 402.5,476.5 C 404.857,476.337 407.19,476.503 409.5,477C 392.193,490.985 374.527,504.485 356.5,517.5C 342.796,506.748 332.462,493.415 325.5,477.5C 350.995,476.502 376.661,476.169 402.5,476.5 Z"/></g>
<g><path style="opacity:1" fill="#201d21" d="M 183.5,525.5 C 184.978,525.238 186.311,525.571 187.5,526.5C 191.833,535.167 196.167,543.833 200.5,552.5C 198.449,554.72 196.116,555.386 193.5,554.5C 190.422,548.009 187.088,541.675 183.5,535.5C 180.46,536.68 177.794,538.347 175.5,540.5C 178.5,546.5 181.5,552.5 184.5,558.5C 182.449,560.72 180.116,561.386 177.5,560.5C 174.828,554.482 171.661,548.815 168,543.5C 164.327,544.253 161.161,545.919 158.5,548.5C 161.977,555.288 165.311,562.121 168.5,569C 166.664,570.419 164.664,571.586 162.5,572.5C 157.729,563.123 153.062,553.623 148.5,544C 160.035,537.547 171.701,531.38 183.5,525.5 Z"/></g>
<g><path style="opacity:1" fill="#211e21" d="M 654.5,530.5 C 658.226,530.177 661.893,530.511 665.5,531.5C 664.399,533.642 663.399,535.808 662.5,538C 654.377,539.079 651.377,543.579 653.5,551.5C 655.224,552.661 656.89,552.495 658.5,551C 662.544,545.289 667.544,540.622 673.5,537C 684.717,536.217 689.883,541.383 689,552.5C 687.055,565.62 679.555,571.286 666.5,569.5C 666.11,563.129 669.11,560.296 675.5,561C 680.419,558.259 682.252,554.092 681,548.5C 679.214,545.098 676.714,544.598 673.5,547C 669.788,552.379 665.121,556.713 659.5,560C 649.209,561.376 644.375,556.876 645,546.5C 646.384,540.058 649.551,534.724 654.5,530.5 Z"/></g>
<g><path style="opacity:1" fill="#221e21" d="M 200.5,557.5 C 201.552,557.351 202.552,557.517 203.5,558C 204.64,559.973 205.973,561.807 207.5,563.5C 197.53,570.145 187.863,577.145 178.5,584.5C 181.918,590.337 185.584,596.004 189.5,601.5C 187.833,602.833 186.167,604.167 184.5,605.5C 178.224,597.79 172.557,589.623 167.5,581C 178.537,573.155 189.537,565.321 200.5,557.5 Z"/></g>
<g><path style="opacity:1" fill="#211e21" d="M 638.5,563.5 C 652.804,562.325 662.638,568.325 668,581.5C 668.86,593.606 663.694,602.106 652.5,607C 639.571,607.731 630.404,602.231 625,590.5C 623.117,578.239 627.617,569.239 638.5,563.5 Z"/></g>
<g><path style="opacity:1" fill="#f6ed4e" d="M 639.5,571.5 C 647.679,571.506 654.179,574.84 659,581.5C 661.561,587.819 660.061,592.986 654.5,597C 645.274,599.645 638.108,596.811 633,588.5C 630.66,581.171 632.827,575.504 639.5,571.5 Z"/></g>
<g><path style="opacity:1" fill="#221f21" d="M 221.5,584.5 C 229.113,591.792 236.113,599.792 242.5,608.5C 241.166,610.995 239.166,612.162 236.5,612C 231.667,606.5 226.833,601 222,595.5C 219.697,597.393 217.53,599.393 215.5,601.5C 219.954,606.909 224.287,612.409 228.5,618C 226.983,619.685 225.316,621.185 223.5,622.5C 218.51,617.342 213.677,612.009 209,606.5C 206.021,608.644 203.188,610.978 200.5,613.5C 205.62,619.575 210.62,625.742 215.5,632C 213.983,633.685 212.316,635.185 210.5,636.5C 203.329,628.494 196.329,620.328 189.5,612C 200.002,602.666 210.669,593.499 221.5,584.5 Z"/></g>
<g><path style="opacity:1" fill="#211e21" d="M 605.5,601.5 C 617.334,605.079 629.001,609.245 640.5,614C 643.601,614.855 646.268,616.355 648.5,618.5C 646.833,620.833 644.833,622.833 642.5,624.5C 639.397,622.517 636.064,621.684 632.5,622C 629.333,625.167 626.167,628.333 623,631.5C 622.901,634.999 623.734,638.332 625.5,641.5C 624.223,644.11 622.557,646.444 620.5,648.5C 613.077,635.25 606.411,621.583 600.5,607.5C 602.19,605.481 603.856,603.481 605.5,601.5 Z"/></g>
<g><path style="opacity:1" fill="#efe94d" d="M 611.5,611.5 C 616.291,613.396 620.958,615.562 625.5,618C 623.5,620.333 621.5,622.667 619.5,625C 618.668,625.688 618.002,625.521 617.5,624.5C 615.198,620.234 613.198,615.901 611.5,611.5 Z"/></g>
<g><path style="opacity:1" fill="#211e21" d="M 243.5,616.5 C 256.296,615.814 263.963,621.648 266.5,634C 267.105,643.116 264.272,644.616 258,638.5C 258.912,628.745 254.412,624.245 244.5,625C 238.618,627.946 234.451,632.446 232,638.5C 231.068,645.745 234.235,650.079 241.5,651.5C 243.857,650.905 246.023,649.905 248,648.5C 254.33,655.822 252.33,659.489 242,659.5C 228.391,657.223 222.391,649.223 224,635.5C 227.799,626.199 234.299,619.865 243.5,616.5 Z"/></g>
<g><path style="opacity:1" fill="#211e21" d="M 572.5,631.5 C 574.371,631.859 575.871,632.859 577,634.5C 582.713,642.09 588.546,649.59 594.5,657C 595.5,657.667 596.5,657.667 597.5,657C 602.5,653.167 607.5,649.333 612.5,645.5C 614.543,646.579 615.876,648.246 616.5,650.5C 609.149,657.181 601.483,663.514 593.5,669.5C 585.19,658.689 576.69,648.023 568,637.5C 567.333,636.833 567.333,636.167 568,635.5C 569.667,634.267 571.167,632.933 572.5,631.5 Z"/></g>
<g><path style="opacity:1" fill="#211d21" d="M 549.5,646.5 C 550.458,646.953 551.292,647.619 552,648.5C 555.506,656.185 559.506,663.519 564,670.5C 568.268,680.826 565.435,688.326 555.5,693C 548.29,697.017 541.79,696.183 536,690.5C 530.7,681.398 525.533,672.232 520.5,663C 522.464,661.013 524.797,659.513 527.5,658.5C 531.92,665.671 536.086,673.004 540,680.5C 545.153,689.47 550.819,689.803 557,681.5C 557.667,679.833 557.667,678.167 557,676.5C 552.26,668.022 547.76,659.355 543.5,650.5C 545.565,649.143 547.565,647.81 549.5,646.5 Z"/></g>
<g><path style="opacity:1" fill="#211e21" d="M 321.5,683.5 C 319.076,683.192 316.743,683.526 314.5,684.5C 314.624,685.107 314.957,685.44 315.5,685.5C 317.69,692.332 318.523,699.332 318,706.5C 315.333,705.167 312.667,703.833 310,702.5C 308.992,695.77 307.659,689.104 306,682.5C 302.656,677.585 299.656,677.585 297,682.5C 295.372,686.438 293.372,690.104 291,693.5C 288.861,692.764 286.861,691.764 285,690.5C 289.555,678.71 294.721,667.043 300.5,655.5C 300.333,655.167 300.167,654.833 300,654.5C 299.221,655.728 298.221,656.728 297,657.5C 293.71,655.713 290.543,653.713 287.5,651.5C 280.478,660.363 273.812,669.53 267.5,679C 264.479,678.708 261.812,677.375 259.5,675C 266.044,665.412 272.71,655.912 279.5,646.5C 275.854,644.183 272.52,641.516 269.5,638.5C 270.124,636.246 271.457,634.579 273.5,633.5C 282.672,639.252 291.672,645.252 300.5,651.5C 310.301,654.984 319.468,659.65 328,665.5C 332.304,673.884 330.138,679.884 321.5,683.5 Z"/></g>
<g><path style="opacity:1" fill="#dc3c35" d="M 180.5,653.5 C 185.167,657.5 189.5,661.833 193.5,666.5C 128.572,704.769 63.905,743.435 -0.5,782.5C -0.5,782.167 -0.5,781.833 -0.5,781.5C 59.8514,738.808 120.185,696.142 180.5,653.5 Z"/></g>
<g><path style="opacity:1" fill="#f1ea4d" d="M 306.5,662.5 C 312.842,663.664 317.842,666.831 321.5,672C 321,675.167 319.167,677 316,677.5C 311.257,675.977 306.757,673.977 302.5,671.5C 304.12,668.596 305.453,665.596 306.5,662.5 Z"/></g>
<g><path style="opacity:1" fill="#211e21" d="M 502.5,668.5 C 518.296,668.2 526.296,676.034 526.5,692C 527.039,698.057 525.039,703.057 520.5,707C 513.316,709.838 506.15,712.671 499,715.5C 493.545,702.307 488.379,688.974 483.5,675.5C 489.755,672.696 496.089,670.363 502.5,668.5 Z"/></g>
<g><path style="opacity:1" fill="#201d21" d="M 338.5,667.5 C 341.509,668.273 344.176,669.606 346.5,671.5C 341.759,684.641 336.759,697.641 331.5,710.5C 329.004,709.42 326.67,708.086 324.5,706.5C 329.459,693.587 334.126,680.587 338.5,667.5 Z"/></g>
<g><path style="opacity:1" fill="#231f21" d="M 360.5,674.5 C 368.626,673.93 375.459,676.596 381,682.5C 382.908,685.206 383.741,688.206 383.5,691.5C 380.833,691.5 378.167,691.5 375.5,691.5C 373.901,683.859 369.234,681.026 361.5,683C 359,684.167 357.167,686 356,688.5C 353.25,694.735 352.917,701.069 355,707.5C 358.05,711.13 361.883,712.297 366.5,711C 368.996,709.446 371.163,707.613 373,705.5C 375.411,706.624 377.578,708.124 379.5,710C 370.368,721.742 360.202,722.575 349,712.5C 341.933,699.02 344.099,687.187 355.5,677C 357.315,676.243 358.981,675.41 360.5,674.5 Z"/></g>
<g><path style="opacity:1" fill="#f5ed4e" d="M 501.5,675.5 C 509.83,674.59 514.997,678.257 517,686.5C 519.486,691.791 518.986,696.624 515.5,701C 511.658,703.002 507.658,704.502 503.5,705.5C 501.086,696.663 498.086,687.996 494.5,679.5C 496.904,678.157 499.238,676.823 501.5,675.5 Z"/></g>
<g><path style="opacity:1" fill="#221f21" d="M 464.5,677.5 C 467.256,679.351 467.923,681.851 466.5,685C 459.158,685.834 451.825,686.668 444.5,687.5C 444.833,690.833 445.167,694.167 445.5,697.5C 452.862,696.686 460.195,695.686 467.5,694.5C 467.5,696.833 467.5,699.167 467.5,701.5C 460.568,702.863 453.568,703.863 446.5,704.5C 447.114,708.135 447.448,711.802 447.5,715.5C 455.839,714.899 464.172,714.233 472.5,713.5C 472.674,715.861 473.007,718.194 473.5,720.5C 462.402,721.103 451.402,722.437 440.5,724.5C 439.083,712.831 437.75,701.164 436.5,689.5C 431.833,689.5 427.167,689.5 422.5,689.5C 421.698,701.148 421.365,712.815 421.5,724.5C 418.5,724.5 415.5,724.5 412.5,724.5C 413.338,712.52 413.672,700.52 413.5,688.5C 409.5,688.5 405.5,688.5 401.5,688.5C 401.5,686.167 401.5,683.833 401.5,681.5C 422.81,682.474 443.81,681.141 464.5,677.5 Z"/></g>
<g><path style="opacity:1" fill="#231f21" d="M 390.5,680.5 C 393.572,680.183 396.572,680.516 399.5,681.5C 397.44,695.484 395.44,709.484 393.5,723.5C 390.327,723.599 387.327,722.932 384.5,721.5C 387.041,707.92 389.041,694.254 390.5,680.5 Z"/></g>
<g><path style="opacity:1" fill="#86812d" d="M 321.5,683.5 C 319.5,684.167 317.5,684.833 315.5,685.5C 314.957,685.44 314.624,685.107 314.5,684.5C 316.743,683.526 319.076,683.192 321.5,683.5 Z"/></g>
</svg>
