<svg width="47" height="47" viewBox="0 0 47 47" fill="none" xmlns="http://www.w3.org/2000/svg">
<rect width="47" height="47" fill="#F5F5F5"/>
<g id="Home" clip-path="url(#clip0_0_1)">
<rect width="393" height="852" transform="translate(-225 -339)" fill="white"/>
<g id="Group 5">
<g id="Group 3">
<g id="Group 1">
<g id="Rectangle 2">
<rect x="-14" y="-8" width="164" height="63" rx="9" fill="#EAEAEA"/>
<rect x="-14" y="-8" width="164" height="63" rx="9" fill="white" fill-opacity="0.3"/>
</g>
</g>
</g>
<g id="solar-roof-clean-energy-solar-panel-alternative-energy-svgrepo-com 1">
<path id="Vector" d="M17.7154 15.1551V13.709H13.2238C13.1161 13.0914 12.8729 12.5202 12.526 12.0267L15.7448 8.80794L14.7222 7.78532L11.5042 11.0032C10.9947 10.644 10.4024 10.3949 9.76154 10.2919V5.7551H8.31538V10.3118C7.71758 10.4244 7.16443 10.6643 6.68466 11.0023L3.47059 7.7884L2.44816 8.81101L5.66241 12.0251C5.3148 12.5191 5.07148 13.0909 4.96338 13.709H0.361538V15.1551H4.96338C5.07148 15.7746 5.31588 16.3476 5.66476 16.8424L2.45123 20.0561L3.47384 21.0787L6.68828 17.8643C7.16714 18.2009 7.71903 18.4399 8.31538 18.5523V23.109H9.76154V18.5722C10.4009 18.4693 10.9919 18.2213 11.5005 17.8634L14.719 21.082L15.7416 20.0596L12.5235 16.841C12.8719 16.3466 13.1157 15.7741 13.2238 15.1551H17.7154ZM9.0936 11.6843C10.6086 11.6843 11.8413 12.917 11.8413 14.432C11.8413 15.9471 10.6088 17.1797 9.0936 17.1797C7.57839 17.1797 6.3459 15.9471 6.3459 14.432C6.3459 12.917 7.57857 11.6843 9.0936 11.6843ZM43.7462 37.5705V26.0013H40.1308V33.9551L33.6231 27.4474H13.3769L0.361538 40.4628H23.5L33.6231 30.3397L43.7462 40.4628H46.6385L43.7462 37.5705ZM12.9302 33.0513H15.9999L14.1922 34.859H11.1225L12.9302 33.0513ZM17.0225 33.0513H20.0923L18.2846 34.859H15.2146L17.0225 33.0513ZM21.1147 33.0513H24.1846L22.3769 34.859H19.3071L21.1147 33.0513ZM24.9076 32.3282H21.8378L23.8263 30.3397H26.8961L24.9076 32.3282ZM20.8152 32.3282H17.7456L19.734 30.3397H22.8037L20.8152 32.3282ZM16.723 32.3282H13.6533L15.6418 30.3397H18.7114L16.723 32.3282ZM10.3995 35.582H13.4691L11.4807 37.5705H8.41101L10.3995 35.582ZM14.4915 35.582H17.5614L15.5729 37.5705H12.5031L14.4915 35.582ZM18.5838 35.582H21.6536L19.6652 37.5705H16.5953L18.5838 35.582Z" fill="#2E3192"/>
</g>
</g>
</g>
<defs>
<clipPath id="clip0_0_1">
<rect width="393" height="852" fill="white" transform="translate(-225 -339)"/>
</clipPath>
</defs>
</svg>
